{
  "asset": {
    "generator": "glTF-Transform v4.5.1",
    "version": "2.0"
  },
  "accessors": [
    {
      "type": "SCALAR",
      "componentType": 5123,
      "count": 306,
      "bufferView": 0,
      "byteOffset": 0
    },
    {
      "type": "VEC2",
      "componentType": 5126,
      "count": 69,
      "bufferView": 1,
      "byteOffset": 0
    },
    {
      "type": "VEC3",
      "componentType": 5126,
      "count": 69,
      "bufferView": 1,
      "byteOffset": 8
    },
    {
      "type": "VEC4",
      "componentType": 5126,
      "count": 69,
      "bufferView": 1,
      "byteOffset": 20
    },
    {
      "type": "VEC3",
      "componentType": 5126,
      "count": 69,
      "max": [
        0.021280910819768906,
        0.06183166801929474,
        0.013809001073241234
      ],
      "min": [
        -0.021224796772003174,
        0.0002486371959093958,
        -0.01380900014191866
      ],
      "bufferView": 1,
      "byteOffset": 36
    }
  ],
  "bufferViews": [
    {
      "buffer": 0,
      "byteOffset": 0,
      "byteLength": 612,
      "target": 34963
    },
    {
      "buffer": 0,
      "byteOffset": 612,
      "byteLength": 3312,
      "byteStride": 48,
      "target": 34962
    }
  ],
  "samplers": [
    {
      "wrapS": 10497,
      "wrapT": 10497
    }
  ],
  "textures": [
    {
      "sampler": 0,
      "extensions": {
        "KHR_texture_basisu": {
          "source": 0
        }
      }
    },
    {
      "sampler": 0,
      "extensions": {
        "KHR_texture_basisu": {
          "source": 2
        }
      }
    },
    {
      "sampler": 0,
      "extensions": {
        "KHR_texture_basisu": {
          "source": 1
        }
      }
    }
  ],
  "images": [
    {
      "extras": {
        "fidelityKey": "27066f4729e0c2fb2082"
      },
      "mimeType": "image/ktx2",
      "uri": "../textures/27066f4729e0c2fb2082.ktx2"
    },
    {
      "extras": {
        "fidelityKey": "40d3b9f1fa829fe12496"
      },
      "mimeType": "image/ktx2",
      "uri": "../textures/40d3b9f1fa829fe12496.ktx2"
    },
    {
      "extras": {
        "fidelityKey": "9d988239d144bf5ea26c"
      },
      "mimeType": "image/ktx2",
      "uri": "../textures/9d988239d144bf5ea26c.ktx2"
    }
  ],
  "buffers": [
    {
      "uri": "avocado-far.bin",
      "byteLength": 3924
    }
  ],
  "materials": [
    {
      "name": "2256_Avocado_d",
      "pbrMetallicRoughness": {
        "baseColorTexture": {
          "index": 0
        },
        "metallicRoughnessTexture": {
          "index": 2
        }
      },
      "normalTexture": {
        "index": 1
      }
    }
  ],
  "meshes": [
    {
      "name": "Avocado",
      "primitives": [
        {
          "attributes": {
            "TEXCOORD_0": 1,
            "NORMAL": 2,
            "TANGENT": 3,
            "POSITION": 4
          },
          "mode": 4,
          "material": 0,
          "indices": 0
        }
      ]
    }
  ],
  "nodes": [
    {
      "name": "Avocado",
      "rotation": [
        0,
        1,
        0,
        0
      ],
      "mesh": 0
    }
  ],
  "scenes": [
    {
      "nodes": [
        0
      ]
    }
  ],
  "scene": 0,
  "extensionsUsed": [
    "KHR_texture_basisu"
  ],
  "extensionsRequired": [
    "KHR_texture_basisu"
  ]
}