{
  "asset": {
    "generator": "glTF-Transform v4.5.1",
    "version": "2.0"
  },
  "accessors": [
    {
      "type": "SCALAR",
      "componentType": 5123,
      "count": 13530,
      "bufferView": 0,
      "byteOffset": 0
    },
    {
      "type": "VEC2",
      "componentType": 5126,
      "count": 2549,
      "bufferView": 1,
      "byteOffset": 0
    },
    {
      "type": "VEC3",
      "componentType": 5126,
      "count": 2549,
      "bufferView": 1,
      "byteOffset": 8
    },
    {
      "type": "VEC4",
      "componentType": 5126,
      "count": 2549,
      "bufferView": 1,
      "byteOffset": 20
    },
    {
      "type": "VEC3",
      "componentType": 5126,
      "count": 2549,
      "max": [
        0.054450009018182755,
        0.13022033870220184,
        0.05445002391934395
      ],
      "min": [
        -0.054450009018182755,
        -0.13022033870220184,
        -0.05445002391934395
      ],
      "bufferView": 1,
      "byteOffset": 36
    }
  ],
  "bufferViews": [
    {
      "buffer": 0,
      "byteOffset": 0,
      "byteLength": 27060,
      "target": 34963
    },
    {
      "buffer": 0,
      "byteOffset": 27060,
      "byteLength": 122352,
      "byteStride": 48,
      "target": 34962
    }
  ],
  "samplers": [
    {
      "wrapS": 10497,
      "wrapT": 10497
    }
  ],
  "textures": [
    {
      "sampler": 0,
      "extensions": {
        "KHR_texture_basisu": {
          "source": 0
        }
      }
    },
    {
      "sampler": 0,
      "extensions": {
        "KHR_texture_basisu": {
          "source": 3
        }
      }
    },
    {
      "sampler": 0,
      "extensions": {
        "KHR_texture_basisu": {
          "source": 2
        }
      }
    },
    {
      "sampler": 0,
      "extensions": {
        "KHR_texture_basisu": {
          "source": 1
        }
      }
    }
  ],
  "images": [
    {
      "extras": {
        "fidelityKey": "6da9285b76e3b5870466"
      },
      "mimeType": "image/ktx2",
      "uri": "../textures/6da9285b76e3b5870466.ktx2"
    },
    {
      "extras": {
        "fidelityKey": "c3c672db06d9530426bd"
      },
      "mimeType": "image/ktx2",
      "uri": "../textures/c3c672db06d9530426bd.ktx2"
    },
    {
      "extras": {
        "fidelityKey": "92a812cf5ed0cba2208f"
      },
      "mimeType": "image/ktx2",
      "uri": "../textures/92a812cf5ed0cba2208f.ktx2"
    },
    {
      "extras": {
        "fidelityKey": "23d2c5b03961bce952c1"
      },
      "mimeType": "image/ktx2",
      "uri": "../textures/23d2c5b03961bce952c1.ktx2"
    }
  ],
  "buffers": [
    {
      "uri": "bottle-near.bin",
      "byteLength": 149412
    }
  ],
  "materials": [
    {
      "name": "BottleMat",
      "pbrMetallicRoughness": {
        "baseColorTexture": {
          "index": 0
        },
        "metallicRoughnessTexture": {
          "index": 3
        }
      },
      "emissiveFactor": [
        1,
        1,
        1
      ],
      "emissiveTexture": {
        "index": 1
      },
      "normalTexture": {
        "index": 2
      },
      "occlusionTexture": {
        "index": 3
      }
    }
  ],
  "meshes": [
    {
      "name": "WaterBottle",
      "primitives": [
        {
          "attributes": {
            "TEXCOORD_0": 1,
            "NORMAL": 2,
            "TANGENT": 3,
            "POSITION": 4
          },
          "mode": 4,
          "material": 0,
          "indices": 0
        }
      ]
    }
  ],
  "nodes": [
    {
      "name": "WaterBottle",
      "rotation": [
        0,
        1,
        0,
        0
      ],
      "mesh": 0
    }
  ],
  "scenes": [
    {
      "nodes": [
        0
      ]
    }
  ],
  "scene": 0,
  "extensionsUsed": [
    "KHR_texture_basisu"
  ],
  "extensionsRequired": [
    "KHR_texture_basisu"
  ]
}