{
  "asset": {
    "generator": "glTF-Transform v4.5.1",
    "version": "2.0"
  },
  "accessors": [
    {
      "type": "SCALAR",
      "componentType": 5123,
      "count": 4710,
      "bufferView": 0,
      "byteOffset": 0
    },
    {
      "type": "SCALAR",
      "componentType": 5123,
      "count": 1761,
      "bufferView": 0,
      "byteOffset": 9420
    },
    {
      "type": "SCALAR",
      "componentType": 5123,
      "count": 690,
      "bufferView": 0,
      "byteOffset": 12944
    },
    {
      "type": "SCALAR",
      "componentType": 5123,
      "count": 21,
      "bufferView": 0,
      "byteOffset": 14324
    },
    {
      "name": "accessorPositions",
      "type": "VEC3",
      "componentType": 5126,
      "count": 1222,
      "max": [
        0.4122427999973297,
        0.6860765218734741,
        0.29317864775657654
      ],
      "min": [
        -0.41402238607406616,
        0.22755339741706848,
        -0.276451975107193
      ],
      "bufferView": 1,
      "byteOffset": 0
    },
    {
      "name": "accessorNormals",
      "type": "VEC3",
      "componentType": 5126,
      "count": 1222,
      "bufferView": 1,
      "byteOffset": 12
    },
    {
      "name": "accessorUVs",
      "type": "VEC2",
      "componentType": 5126,
      "count": 1222,
      "bufferView": 1,
      "byteOffset": 24
    },
    {
      "name": "accessorUV2s",
      "type": "VEC2",
      "componentType": 5126,
      "count": 1222,
      "bufferView": 1,
      "byteOffset": 32
    },
    {
      "name": "accessorPositions",
      "type": "VEC3",
      "componentType": 5126,
      "count": 497,
      "max": [
        0.388933002948761,
        0.6401861310005188,
        0.2645990252494812
      ],
      "min": [
        -0.3902398943901062,
        0.005148450843989849,
        -0.2746981084346771
      ],
      "bufferView": 2,
      "byteOffset": 0
    },
    {
      "name": "accessorNormals",
      "type": "VEC3",
      "componentType": 5126,
      "count": 497,
      "bufferView": 2,
      "byteOffset": 12
    },
    {
      "name": "accessorUVs",
      "type": "VEC2",
      "componentType": 5126,
      "count": 497,
      "bufferView": 2,
      "byteOffset": 24
    },
    {
      "name": "accessorUV2s",
      "type": "VEC2",
      "componentType": 5126,
      "count": 497,
      "bufferView": 2,
      "byteOffset": 32
    },
    {
      "name": "accessorPositions",
      "type": "VEC3",
      "componentType": 5126,
      "count": 330,
      "max": [
        0.33798032999038696,
        0.5002316236495972,
        0.22011122107505798
      ],
      "min": [
        -0.33798032999038696,
        0.000583706540055573,
        -0.2388409972190857
      ],
      "bufferView": 3,
      "byteOffset": 0
    },
    {
      "name": "accessorNormals",
      "type": "VEC3",
      "componentType": 5126,
      "count": 330,
      "bufferView": 3,
      "byteOffset": 12
    },
    {
      "name": "accessorUV2s",
      "type": "VEC2",
      "componentType": 5126,
      "count": 330,
      "bufferView": 3,
      "byteOffset": 24
    },
    {
      "name": "accessorPositions",
      "type": "VEC3",
      "componentType": 5126,
      "count": 8,
      "max": [
        0.13618184626102448,
        0.010055896826088428,
        0.04677271470427513
      ],
      "min": [
        -0.13588549196720123,
        0.005801851861178875,
        -0.11064400523900986
      ],
      "bufferView": 4,
      "byteOffset": 0
    },
    {
      "name": "accessorNormals",
      "type": "VEC3",
      "componentType": 5126,
      "count": 8,
      "bufferView": 4,
      "byteOffset": 12
    },
    {
      "name": "accessorUVs",
      "type": "VEC2",
      "componentType": 5126,
      "count": 8,
      "bufferView": 4,
      "byteOffset": 24
    },
    {
      "name": "accessorUV2s",
      "type": "VEC2",
      "componentType": 5126,
      "count": 8,
      "bufferView": 4,
      "byteOffset": 32
    }
  ],
  "bufferViews": [
    {
      "buffer": 0,
      "byteOffset": 0,
      "byteLength": 14368,
      "target": 34963
    },
    {
      "buffer": 0,
      "byteOffset": 14368,
      "byteLength": 48880,
      "byteStride": 40,
      "target": 34962
    },
    {
      "buffer": 0,
      "byteOffset": 63248,
      "byteLength": 19880,
      "byteStride": 40,
      "target": 34962
    },
    {
      "buffer": 0,
      "byteOffset": 83128,
      "byteLength": 10560,
      "byteStride": 32,
      "target": 34962
    },
    {
      "buffer": 0,
      "byteOffset": 93688,
      "byteLength": 320,
      "byteStride": 40,
      "target": 34962
    }
  ],
  "samplers": [
    {
      "magFilter": 9729,
      "minFilter": 9987,
      "wrapS": 10497,
      "wrapT": 10497
    }
  ],
  "textures": [
    {
      "sampler": 0,
      "extensions": {
        "EXT_texture_webp": {
          "source": 2
        }
      }
    },
    {
      "sampler": 0,
      "extensions": {
        "EXT_texture_webp": {
          "source": 0
        }
      }
    },
    {
      "sampler": 0,
      "extensions": {
        "EXT_texture_webp": {
          "source": 1
        }
      }
    },
    {
      "sampler": 0,
      "extensions": {
        "EXT_texture_webp": {
          "source": 3
        }
      }
    },
    {
      "sampler": 0,
      "extensions": {
        "EXT_texture_webp": {
          "source": 4
        }
      }
    },
    {
      "sampler": 0,
      "extensions": {
        "EXT_texture_webp": {
          "source": 5
        }
      }
    }
  ],
  "images": [
    {
      "extras": {
        "fidelityKey": "7909cd802fc398b8999d"
      },
      "mimeType": "image/webp",
      "uri": "../textures/7909cd802fc398b8999d.webp"
    },
    {
      "extras": {
        "fidelityKey": "60e4d748ff54f3fb494a"
      },
      "mimeType": "image/webp",
      "uri": "../textures/60e4d748ff54f3fb494a.webp"
    },
    {
      "extras": {
        "fidelityKey": "d50be445441b0f9b28de"
      },
      "mimeType": "image/webp",
      "uri": "../textures/d50be445441b0f9b28de.webp"
    },
    {
      "extras": {
        "fidelityKey": "54abe07ca01be862e4ad"
      },
      "mimeType": "image/webp",
      "uri": "../textures/54abe07ca01be862e4ad.webp"
    },
    {
      "extras": {
        "fidelityKey": "db1391529d134f8e7a4a"
      },
      "mimeType": "image/webp",
      "uri": "../textures/db1391529d134f8e7a4a.webp"
    },
    {
      "extras": {
        "fidelityKey": "4179927a83ec34edacc4"
      },
      "mimeType": "image/webp",
      "uri": "../textures/4179927a83ec34edacc4.webp"
    }
  ],
  "buffers": [
    {
      "uri": "chair-far-webp.bin",
      "byteLength": 94008
    }
  ],
  "materials": [
    {
      "name": "fabric Mystere Mango Velvet",
      "pbrMetallicRoughness": {
        "baseColorFactor": [
          0.883,
          0.035,
          0,
          1
        ],
        "roughnessFactor": 0.8,
        "metallicFactor": 0,
        "baseColorTexture": {
          "index": 0,
          "extensions": {
            "KHR_texture_transform": {
              "offset": [
                -3,
                3
              ],
              "scale": [
                7,
                7
              ],
              "texCoord": 0
            }
          }
        }
      },
      "normalTexture": {
        "index": 1,
        "scale": 0.6,
        "extensions": {
          "KHR_texture_transform": {
            "offset": [
              -0.5,
              0.5
            ],
            "scale": [
              2,
              2
            ],
            "texCoord": 0
          }
        }
      },
      "occlusionTexture": {
        "index": 2,
        "texCoord": 1,
        "extensions": {
          "KHR_texture_transform": {
            "texCoord": 1
          }
        }
      },
      "extensions": {
        "KHR_materials_sheen": {
          "sheenColorFactor": [
            1,
            0.329,
            0.1
          ],
          "sheenRoughnessFactor": 0.8
        }
      }
    },
    {
      "name": "wood Brown",
      "pbrMetallicRoughness": {
        "baseColorFactor": [
          0.14,
          0.07,
          0.01,
          1
        ],
        "baseColorTexture": {
          "index": 3,
          "extensions": {
            "KHR_texture_transform": {
              "offset": [
                -0.8635584,
                1.12502563
              ],
              "rotation": 0.08726647,
              "scale": [
                3,
                3
              ],
              "texCoord": 0
            }
          }
        },
        "metallicRoughnessTexture": {
          "index": 4,
          "extensions": {
            "KHR_texture_transform": {
              "offset": [
                -0.8635584,
                1.12502563
              ],
              "rotation": 0.08726647,
              "scale": [
                3,
                3
              ],
              "texCoord": 0
            }
          }
        }
      },
      "occlusionTexture": {
        "index": 2,
        "texCoord": 1,
        "extensions": {
          "KHR_texture_transform": {
            "texCoord": 1
          }
        }
      }
    },
    {
      "name": "metal",
      "pbrMetallicRoughness": {
        "baseColorFactor": [
          0.28,
          0.26,
          0.23,
          1
        ],
        "roughnessFactor": 0.3
      },
      "occlusionTexture": {
        "index": 2,
        "extensions": {
          "KHR_texture_transform": {
            "texCoord": 1
          }
        }
      }
    },
    {
      "name": "label",
      "pbrMetallicRoughness": {
        "metallicFactor": 0,
        "baseColorTexture": {
          "index": 5,
          "extensions": {
            "KHR_texture_transform": {
              "texCoord": 0
            }
          }
        }
      },
      "occlusionTexture": {
        "index": 2,
        "texCoord": 1,
        "extensions": {
          "KHR_texture_transform": {
            "texCoord": 1
          }
        }
      }
    }
  ],
  "meshes": [
    {
      "name": "SheenChair_fabric",
      "primitives": [
        {
          "attributes": {
            "POSITION": 4,
            "NORMAL": 5,
            "TEXCOORD_0": 6,
            "TEXCOORD_1": 7
          },
          "mode": 4,
          "material": 0,
          "indices": 0
        }
      ]
    },
    {
      "name": "SheenChair_wood",
      "primitives": [
        {
          "attributes": {
            "POSITION": 8,
            "NORMAL": 9,
            "TEXCOORD_0": 10,
            "TEXCOORD_1": 11
          },
          "mode": 4,
          "material": 1,
          "indices": 1
        }
      ]
    },
    {
      "name": "SheenChair_metal",
      "primitives": [
        {
          "attributes": {
            "POSITION": 12,
            "NORMAL": 13,
            "TEXCOORD_0": 14
          },
          "mode": 4,
          "material": 2,
          "indices": 2
        }
      ]
    },
    {
      "name": "SheenChair_label",
      "primitives": [
        {
          "attributes": {
            "POSITION": 15,
            "NORMAL": 16,
            "TEXCOORD_0": 17,
            "TEXCOORD_1": 18
          },
          "mode": 4,
          "material": 3,
          "indices": 3
        }
      ]
    }
  ],
  "nodes": [
    {
      "name": "SheenChair_fabric",
      "mesh": 0
    },
    {
      "name": "SheenChair_wood",
      "mesh": 1
    },
    {
      "name": "SheenChair_metal",
      "mesh": 2
    },
    {
      "name": "SheenChair_label",
      "translation": [
        -0.0006629925,
        0.23622,
        0.0596007444
      ],
      "rotation": [
        -0.0436193831,
        0,
        0,
        0.999048233
      ],
      "mesh": 3
    }
  ],
  "scenes": [
    {
      "nodes": [
        0,
        1,
        2,
        3
      ]
    }
  ],
  "scene": 0,
  "extensionsUsed": [
    "EXT_texture_webp",
    "KHR_materials_sheen",
    "KHR_texture_transform"
  ],
  "extensionsRequired": [
    "EXT_texture_webp",
    "KHR_texture_transform"
  ]
}