{
  "asset": {
    "generator": "glTF-Transform v4.5.1",
    "version": "2.0"
  },
  "accessors": [
    {
      "type": "SCALAR",
      "componentType": 5123,
      "count": 1734,
      "bufferView": 0,
      "byteOffset": 0
    },
    {
      "type": "VEC2",
      "componentType": 5126,
      "count": 380,
      "bufferView": 1,
      "byteOffset": 0
    },
    {
      "type": "VEC3",
      "componentType": 5126,
      "count": 380,
      "bufferView": 1,
      "byteOffset": 8
    },
    {
      "type": "VEC4",
      "componentType": 5126,
      "count": 380,
      "bufferView": 1,
      "byteOffset": 20
    },
    {
      "type": "VEC3",
      "componentType": 5126,
      "count": 380,
      "max": [
        0.06853454560041428,
        0.2866283059120178,
        0.3253729045391083
      ],
      "min": [
        -0.07269901037216187,
        0.0007352065877057612,
        -0.3177383244037628
      ],
      "bufferView": 1,
      "byteOffset": 36
    }
  ],
  "bufferViews": [
    {
      "buffer": 0,
      "byteOffset": 0,
      "byteLength": 3468,
      "target": 34963
    },
    {
      "buffer": 0,
      "byteOffset": 3468,
      "byteLength": 18240,
      "byteStride": 48,
      "target": 34962
    }
  ],
  "samplers": [
    {
      "wrapS": 10497,
      "wrapT": 10497
    }
  ],
  "textures": [
    {
      "sampler": 0,
      "extensions": {
        "EXT_texture_webp": {
          "source": 0
        }
      }
    },
    {
      "sampler": 0,
      "extensions": {
        "EXT_texture_webp": {
          "source": 2
        }
      }
    },
    {
      "sampler": 0,
      "extensions": {
        "EXT_texture_webp": {
          "source": 1
        }
      }
    }
  ],
  "images": [
    {
      "extras": {
        "fidelityKey": "3bda014d57ae4b415367"
      },
      "mimeType": "image/webp",
      "uri": "../textures/3bda014d57ae4b415367.webp"
    },
    {
      "extras": {
        "fidelityKey": "2a7e7f2d859f60bee2c7"
      },
      "mimeType": "image/webp",
      "uri": "../textures/2a7e7f2d859f60bee2c7.webp"
    },
    {
      "extras": {
        "fidelityKey": "775d14a83919d13434ff"
      },
      "mimeType": "image/webp",
      "uri": "../textures/775d14a83919d13434ff.webp"
    }
  ],
  "buffers": [
    {
      "uri": "fish-far-webp.bin",
      "byteLength": 21708
    }
  ],
  "materials": [
    {
      "name": "7288_barramundi fish_col",
      "pbrMetallicRoughness": {
        "baseColorTexture": {
          "index": 0
        },
        "metallicRoughnessTexture": {
          "index": 2
        }
      },
      "normalTexture": {
        "index": 1
      },
      "occlusionTexture": {
        "index": 2
      }
    }
  ],
  "meshes": [
    {
      "name": "barramundi_fish_Hero",
      "primitives": [
        {
          "attributes": {
            "TEXCOORD_0": 1,
            "NORMAL": 2,
            "TANGENT": 3,
            "POSITION": 4
          },
          "mode": 4,
          "material": 0,
          "indices": 0
        }
      ]
    }
  ],
  "nodes": [
    {
      "name": "BarramundiFish",
      "rotation": [
        0,
        1,
        0,
        0
      ],
      "mesh": 0
    }
  ],
  "scenes": [
    {
      "nodes": [
        0
      ]
    }
  ],
  "scene": 0,
  "extensionsUsed": [
    "EXT_texture_webp"
  ],
  "extensionsRequired": [
    "EXT_texture_webp"
  ]
}