{
  "asset": {
    "generator": "glTF-Transform v4.5.1",
    "version": "2.0",
    "copyright": "2025, CC BY 4.0 International, Eric Chadwick of Darmstadt Graphics Group GmbH. This work is based on \"Commercial Fridge\" (https://sketchfab.com/3d-models/commercial-fridge-2174e1e4f1f24f1a95aa110ee060f473) by Sean Thomas (https://sketchfab.com/foon.) licensed under CC-BY-4.0 (http://creativecommons.org/licenses/by/4.0/)"
  },
  "accessors": [
    {
      "type": "SCALAR",
      "componentType": 5126,
      "count": 17,
      "bufferView": 0,
      "byteOffset": 0
    },
    {
      "type": "VEC4",
      "componentType": 5126,
      "count": 17,
      "bufferView": 0,
      "byteOffset": 68
    },
    {
      "type": "SCALAR",
      "componentType": 5123,
      "count": 420,
      "bufferView": 1,
      "byteOffset": 0
    },
    {
      "type": "SCALAR",
      "componentType": 5123,
      "count": 654,
      "bufferView": 1,
      "byteOffset": 840
    },
    {
      "type": "SCALAR",
      "componentType": 5123,
      "count": 30,
      "bufferView": 1,
      "byteOffset": 2148
    },
    {
      "type": "SCALAR",
      "componentType": 5123,
      "count": 6,
      "bufferView": 1,
      "byteOffset": 2208
    },
    {
      "type": "SCALAR",
      "componentType": 5123,
      "count": 282,
      "bufferView": 1,
      "byteOffset": 2220
    },
    {
      "type": "SCALAR",
      "componentType": 5123,
      "count": 11622,
      "bufferView": 1,
      "byteOffset": 2784
    },
    {
      "type": "SCALAR",
      "componentType": 5123,
      "count": 10041,
      "bufferView": 1,
      "byteOffset": 26028
    },
    {
      "type": "SCALAR",
      "componentType": 5123,
      "count": 525,
      "bufferView": 1,
      "byteOffset": 46112
    },
    {
      "type": "VEC3",
      "componentType": 5126,
      "count": 253,
      "bufferView": 2,
      "byteOffset": 0
    },
    {
      "type": "VEC3",
      "componentType": 5126,
      "count": 253,
      "max": [
        0.3943006992340088,
        0.45832231640815735,
        2.1840403079986572
      ],
      "min": [
        -0.4600776433944702,
        -0.4602578580379486,
        0.028261780738830566
      ],
      "bufferView": 2,
      "byteOffset": 12
    },
    {
      "type": "VEC2",
      "componentType": 5126,
      "count": 253,
      "bufferView": 2,
      "byteOffset": 24
    },
    {
      "type": "VEC3",
      "componentType": 5126,
      "count": 368,
      "bufferView": 3,
      "byteOffset": 0
    },
    {
      "type": "VEC3",
      "componentType": 5126,
      "count": 368,
      "max": [
        0.017926573753356934,
        0.03597920387983322,
        1.5983061790466309
      ],
      "min": [
        -0.8344517350196838,
        -0.050564996898174286,
        0.001999974250793457
      ],
      "bufferView": 3,
      "byteOffset": 12
    },
    {
      "type": "VEC2",
      "componentType": 5126,
      "count": 368,
      "bufferView": 3,
      "byteOffset": 24
    },
    {
      "type": "VEC3",
      "componentType": 5126,
      "count": 20,
      "bufferView": 4,
      "byteOffset": 0
    },
    {
      "type": "VEC3",
      "componentType": 5126,
      "count": 20,
      "max": [
        0.34141165018081665,
        -0.40388792753219604,
        1.895334243774414
      ],
      "min": [
        -0.40718865394592285,
        -0.4374544024467468,
        0.4208833575248718
      ],
      "bufferView": 4,
      "byteOffset": 12
    },
    {
      "type": "VEC2",
      "componentType": 5126,
      "count": 20,
      "bufferView": 4,
      "byteOffset": 24
    },
    {
      "type": "VEC3",
      "componentType": 5126,
      "count": 4,
      "bufferView": 5,
      "byteOffset": 0
    },
    {
      "type": "VEC3",
      "componentType": 5126,
      "count": 4,
      "max": [
        0.34316110610961914,
        -0.4252135753631592,
        1.8989636898040771
      ],
      "min": [
        -0.4074607491493225,
        -0.42521369457244873,
        0.4159911870956421
      ],
      "bufferView": 5,
      "byteOffset": 12
    },
    {
      "type": "VEC2",
      "componentType": 5126,
      "count": 4,
      "bufferView": 5,
      "byteOffset": 24
    },
    {
      "type": "VEC3",
      "componentType": 5126,
      "count": 159,
      "bufferView": 6,
      "byteOffset": 0
    },
    {
      "type": "VEC3",
      "componentType": 5126,
      "count": 159,
      "max": [
        0.3396197557449341,
        0.16662541031837463,
        1.8953382968902588
      ],
      "min": [
        -0.40539658069610596,
        -0.3934750258922577,
        0.4212585687637329
      ],
      "bufferView": 6,
      "byteOffset": 12
    },
    {
      "type": "VEC2",
      "componentType": 5126,
      "count": 159,
      "bufferView": 6,
      "byteOffset": 24
    },
    {
      "type": "VEC3",
      "componentType": 5126,
      "count": 3126,
      "bufferView": 7,
      "byteOffset": 0
    },
    {
      "type": "VEC3",
      "componentType": 5126,
      "count": 3126,
      "max": [
        0.5438590049743652,
        0.5553877353668213,
        0.042165763676166534
      ],
      "min": [
        -0.1439894735813141,
        -0.6698114275932312,
        -0.5058751106262207
      ],
      "bufferView": 7,
      "byteOffset": 12
    },
    {
      "type": "VEC4",
      "componentType": 5126,
      "count": 3126,
      "bufferView": 7,
      "byteOffset": 24
    },
    {
      "type": "VEC2",
      "componentType": 5126,
      "count": 3126,
      "bufferView": 7,
      "byteOffset": 40
    },
    {
      "type": "VEC3",
      "componentType": 5126,
      "count": 2711,
      "bufferView": 8,
      "byteOffset": 0
    },
    {
      "type": "VEC3",
      "componentType": 5126,
      "count": 2711,
      "max": [
        0.5231950283050537,
        0.6348568797111511,
        0.02277708612382412
      ],
      "min": [
        -0.12093343585729599,
        -0.47566625475883484,
        -0.48353755474090576
      ],
      "bufferView": 8,
      "byteOffset": 12
    },
    {
      "type": "VEC4",
      "componentType": 5126,
      "count": 2711,
      "bufferView": 8,
      "byteOffset": 24
    },
    {
      "type": "VEC2",
      "componentType": 5126,
      "count": 2711,
      "bufferView": 8,
      "byteOffset": 40
    },
    {
      "type": "VEC3",
      "componentType": 5126,
      "count": 327,
      "bufferView": 9,
      "byteOffset": 0
    },
    {
      "type": "VEC3",
      "componentType": 5126,
      "count": 327,
      "max": [
        0.5422762632369995,
        0.45933711528778076,
        0.044872649013996124
      ],
      "min": [
        -0.14386579394340515,
        -0.6432526111602783,
        -0.4815326929092407
      ],
      "bufferView": 9,
      "byteOffset": 12
    },
    {
      "type": "VEC4",
      "componentType": 5126,
      "count": 327,
      "bufferView": 9,
      "byteOffset": 24
    },
    {
      "type": "VEC2",
      "componentType": 5126,
      "count": 327,
      "bufferView": 9,
      "byteOffset": 40
    }
  ],
  "bufferViews": [
    {
      "buffer": 0,
      "byteOffset": 0,
      "byteLength": 340
    },
    {
      "buffer": 0,
      "byteOffset": 340,
      "byteLength": 47164,
      "target": 34963
    },
    {
      "buffer": 0,
      "byteOffset": 47504,
      "byteLength": 8096,
      "byteStride": 32,
      "target": 34962
    },
    {
      "buffer": 0,
      "byteOffset": 55600,
      "byteLength": 11776,
      "byteStride": 32,
      "target": 34962
    },
    {
      "buffer": 0,
      "byteOffset": 67376,
      "byteLength": 640,
      "byteStride": 32,
      "target": 34962
    },
    {
      "buffer": 0,
      "byteOffset": 68016,
      "byteLength": 128,
      "byteStride": 32,
      "target": 34962
    },
    {
      "buffer": 0,
      "byteOffset": 68144,
      "byteLength": 5088,
      "byteStride": 32,
      "target": 34962
    },
    {
      "buffer": 0,
      "byteOffset": 73232,
      "byteLength": 150048,
      "byteStride": 48,
      "target": 34962
    },
    {
      "buffer": 0,
      "byteOffset": 223280,
      "byteLength": 130128,
      "byteStride": 48,
      "target": 34962
    },
    {
      "buffer": 0,
      "byteOffset": 353408,
      "byteLength": 15696,
      "byteStride": 48,
      "target": 34962
    }
  ],
  "samplers": [
    {
      "wrapS": 10497,
      "wrapT": 10497
    }
  ],
  "textures": [
    {
      "sampler": 0,
      "extensions": {
        "EXT_texture_webp": {
          "source": 9
        }
      }
    },
    {
      "sampler": 0,
      "extensions": {
        "EXT_texture_webp": {
          "source": 4
        }
      }
    },
    {
      "sampler": 0,
      "extensions": {
        "EXT_texture_webp": {
          "source": 6
        }
      }
    },
    {
      "sampler": 0,
      "extensions": {
        "EXT_texture_webp": {
          "source": 7
        }
      }
    },
    {
      "sampler": 0,
      "extensions": {
        "EXT_texture_webp": {
          "source": 8
        }
      }
    },
    {
      "sampler": 0,
      "extensions": {
        "EXT_texture_webp": {
          "source": 5
        }
      }
    },
    {
      "sampler": 0,
      "extensions": {
        "EXT_texture_webp": {
          "source": 1
        }
      }
    },
    {
      "sampler": 0,
      "extensions": {
        "EXT_texture_webp": {
          "source": 3
        }
      }
    },
    {
      "sampler": 0,
      "extensions": {
        "EXT_texture_webp": {
          "source": 0
        }
      }
    },
    {
      "sampler": 0,
      "extensions": {
        "EXT_texture_webp": {
          "source": 2
        }
      }
    }
  ],
  "images": [
    {
      "extras": {
        "fidelityKey": "8a2e7b1dfbf5426ac979"
      },
      "mimeType": "image/webp",
      "uri": "../textures/8a2e7b1dfbf5426ac979.webp"
    },
    {
      "extras": {
        "fidelityKey": "112760671001954405c9"
      },
      "mimeType": "image/webp",
      "uri": "../textures/112760671001954405c9.webp"
    },
    {
      "extras": {
        "fidelityKey": "b87cff54f09b9a035225"
      },
      "mimeType": "image/webp",
      "uri": "../textures/b87cff54f09b9a035225.webp"
    },
    {
      "extras": {
        "fidelityKey": "fc36b08ae6eabceae217"
      },
      "mimeType": "image/webp",
      "uri": "../textures/fc36b08ae6eabceae217.webp"
    },
    {
      "extras": {
        "fidelityKey": "287e2e6a824d8908684b"
      },
      "mimeType": "image/webp",
      "uri": "../textures/287e2e6a824d8908684b.webp"
    },
    {
      "extras": {
        "fidelityKey": "7d26034cf77a1a5500b0"
      },
      "mimeType": "image/webp",
      "uri": "../textures/7d26034cf77a1a5500b0.webp"
    },
    {
      "extras": {
        "fidelityKey": "6853bf955ad42e21ac18"
      },
      "mimeType": "image/webp",
      "uri": "../textures/6853bf955ad42e21ac18.webp"
    },
    {
      "extras": {
        "fidelityKey": "78731aed8e1b8610340a"
      },
      "mimeType": "image/webp",
      "uri": "../textures/78731aed8e1b8610340a.webp"
    },
    {
      "extras": {
        "fidelityKey": "2a95f4132055888799f9"
      },
      "mimeType": "image/webp",
      "uri": "../textures/2a95f4132055888799f9.webp"
    },
    {
      "extras": {
        "fidelityKey": "db7c47f5b84b2c62bf61"
      },
      "mimeType": "image/webp",
      "uri": "../textures/db7c47f5b84b2c62bf61.webp"
    }
  ],
  "buffers": [
    {
      "uri": "fridge-far-webp.bin",
      "byteLength": 369104
    }
  ],
  "materials": [
    {
      "name": "FridgeCase",
      "pbrMetallicRoughness": {
        "baseColorTexture": {
          "index": 0
        },
        "metallicRoughnessTexture": {
          "index": 1
        }
      },
      "occlusionTexture": {
        "index": 1
      }
    },
    {
      "name": "FridgeInterior",
      "pbrMetallicRoughness": {
        "roughnessFactor": 0.75,
        "baseColorTexture": {
          "index": 2
        },
        "metallicRoughnessTexture": {
          "index": 4
        }
      },
      "emissiveFactor": [
        1,
        1,
        1
      ],
      "emissiveTexture": {
        "index": 3
      },
      "occlusionTexture": {
        "index": 4
      }
    },
    {
      "name": "FridgeGlass",
      "alphaMode": "BLEND",
      "doubleSided": true,
      "pbrMetallicRoughness": {
        "baseColorFactor": [
          1,
          1,
          1,
          0.23
        ],
        "roughnessFactor": 0.75,
        "metallicFactor": 0,
        "metallicRoughnessTexture": {
          "index": 5
        }
      },
      "extensions": {
        "KHR_materials_clearcoat": {
          "clearcoatFactor": 1,
          "clearcoatRoughnessFactor": 0
        }
      }
    },
    {
      "name": "ChampagneGlass",
      "pbrMetallicRoughness": {
        "baseColorFactor": [
          0.01568627543747425,
          0.0313725508749485,
          0.01568627543747425,
          1
        ],
        "roughnessFactor": 0.5,
        "metallicFactor": 0,
        "metallicRoughnessTexture": {
          "index": 5
        }
      },
      "normalTexture": {
        "index": 6,
        "scale": 0.3
      }
    },
    {
      "name": "ChampagneFoil",
      "pbrMetallicRoughness": {
        "baseColorFactor": [
          0.8666666746139526,
          0.6705882549285889,
          0.4156862795352936,
          1
        ],
        "roughnessFactor": 0.4
      },
      "normalTexture": {
        "index": 7
      }
    },
    {
      "name": "ChampagneLabel",
      "pbrMetallicRoughness": {
        "baseColorTexture": {
          "index": 8
        },
        "metallicRoughnessTexture": {
          "index": 9
        }
      },
      "normalTexture": {
        "index": 6,
        "scale": 0.2
      }
    }
  ],
  "meshes": [
    {
      "name": "FridgeCase",
      "primitives": [
        {
          "attributes": {
            "NORMAL": 10,
            "POSITION": 11,
            "TEXCOORD_0": 12
          },
          "mode": 4,
          "material": 0,
          "indices": 2
        }
      ]
    },
    {
      "name": "FridgeDoor",
      "primitives": [
        {
          "attributes": {
            "NORMAL": 13,
            "POSITION": 14,
            "TEXCOORD_0": 15
          },
          "mode": 4,
          "material": 0,
          "indices": 3
        }
      ]
    },
    {
      "name": "FridgeDoorInner",
      "primitives": [
        {
          "attributes": {
            "NORMAL": 16,
            "POSITION": 17,
            "TEXCOORD_0": 18
          },
          "mode": 4,
          "material": 1,
          "indices": 4
        }
      ]
    },
    {
      "name": "FridgeGlass",
      "primitives": [
        {
          "attributes": {
            "NORMAL": 19,
            "POSITION": 20,
            "TEXCOORD_0": 21
          },
          "mode": 4,
          "material": 2,
          "indices": 5
        }
      ]
    },
    {
      "name": "FridgeInterior",
      "primitives": [
        {
          "attributes": {
            "NORMAL": 22,
            "POSITION": 23,
            "TEXCOORD_0": 24
          },
          "mode": 4,
          "material": 1,
          "indices": 6
        }
      ]
    },
    {
      "name": "ChampagneBottles",
      "primitives": [
        {
          "attributes": {
            "NORMAL": 25,
            "POSITION": 26,
            "TANGENT": 27,
            "TEXCOORD_0": 28
          },
          "mode": 4,
          "material": 3,
          "indices": 7
        },
        {
          "attributes": {
            "NORMAL": 29,
            "POSITION": 30,
            "TANGENT": 31,
            "TEXCOORD_0": 32
          },
          "mode": 4,
          "material": 4,
          "indices": 8
        },
        {
          "attributes": {
            "NORMAL": 33,
            "POSITION": 34,
            "TANGENT": 35,
            "TEXCOORD_0": 36
          },
          "mode": 4,
          "material": 5,
          "indices": 9
        }
      ]
    }
  ],
  "nodes": [
    {
      "name": "FridgeCase",
      "rotation": [
        -0.7071067811865475,
        0,
        0,
        0.7071067811865476
      ],
      "mesh": 0,
      "children": [
        1,
        4
      ]
    },
    {
      "name": "FridgeDoor",
      "translation": [
        0.3763740956783294,
        -0.4285686016082764,
        0.3573247194290161
      ],
      "rotation": [
        0,
        0,
        0,
        -1
      ],
      "mesh": 1,
      "children": [
        2,
        3
      ]
    },
    {
      "name": "FridgeDoorInner",
      "translation": [
        -0.3763740956783294,
        0.4285686016082764,
        -0.3573247194290161
      ],
      "mesh": 2
    },
    {
      "name": "FridgeGlass",
      "translation": [
        -0.3763740956783294,
        0.4285686016082764,
        -0.3573247194290161
      ],
      "mesh": 3
    },
    {
      "name": "FridgeInterior",
      "mesh": 4,
      "children": [
        5
      ]
    },
    {
      "name": "ChampagneBottles",
      "translation": [
        -0.3279202878475189,
        -0.20470546185970304,
        1.0919711589813232
      ],
      "rotation": [
        0.6817057827088218,
        -0.1878223833227745,
        -0.18782237511279729,
        0.6817057529105157
      ],
      "mesh": 5
    }
  ],
  "scenes": [
    {
      "nodes": [
        0
      ]
    }
  ],
  "scene": 0,
  "extensionsUsed": [
    "EXT_texture_webp",
    "KHR_materials_clearcoat"
  ],
  "extensionsRequired": [
    "EXT_texture_webp"
  ]
}