{
  "asset": {
    "generator": "glTF-Transform v4.5.1",
    "version": "2.0"
  },
  "accessors": [
    {
      "type": "SCALAR",
      "componentType": 5123,
      "count": 600,
      "bufferView": 0,
      "byteOffset": 0
    },
    {
      "type": "SCALAR",
      "componentType": 5123,
      "count": 558,
      "bufferView": 0,
      "byteOffset": 1200
    },
    {
      "type": "SCALAR",
      "componentType": 5123,
      "count": 1458,
      "bufferView": 0,
      "byteOffset": 2316
    },
    {
      "type": "VEC2",
      "componentType": 5126,
      "count": 398,
      "bufferView": 1,
      "byteOffset": 0
    },
    {
      "type": "VEC3",
      "componentType": 5126,
      "count": 398,
      "bufferView": 1,
      "byteOffset": 8
    },
    {
      "type": "VEC4",
      "componentType": 5126,
      "count": 398,
      "bufferView": 1,
      "byteOffset": 20
    },
    {
      "type": "VEC3",
      "componentType": 5126,
      "count": 398,
      "max": [
        6.138864040374756,
        12.782109260559082,
        2.3157098293304443
      ],
      "min": [
        -6.381473064422607,
        -12.832109451293945,
        -2.3157098293304443
      ],
      "bufferView": 1,
      "byteOffset": 36
    },
    {
      "type": "VEC2",
      "componentType": 5126,
      "count": 152,
      "bufferView": 2,
      "byteOffset": 0
    },
    {
      "type": "VEC3",
      "componentType": 5126,
      "count": 152,
      "bufferView": 2,
      "byteOffset": 8
    },
    {
      "type": "VEC4",
      "componentType": 5126,
      "count": 152,
      "bufferView": 2,
      "byteOffset": 20
    },
    {
      "type": "VEC3",
      "componentType": 5126,
      "count": 152,
      "max": [
        0.12920807301998138,
        0.6523504257202148,
        0.11199096590280533
      ],
      "min": [
        -0.12920807301998138,
        -0.6268255710601807,
        -0.1119912788271904
      ],
      "bufferView": 2,
      "byteOffset": 36
    },
    {
      "type": "VEC2",
      "componentType": 5126,
      "count": 573,
      "bufferView": 3,
      "byteOffset": 0
    },
    {
      "type": "VEC3",
      "componentType": 5126,
      "count": 573,
      "bufferView": 3,
      "byteOffset": 8
    },
    {
      "type": "VEC4",
      "componentType": 5126,
      "count": 573,
      "bufferView": 3,
      "byteOffset": 20
    },
    {
      "type": "VEC3",
      "componentType": 5126,
      "count": 573,
      "max": [
        1.0229012966156006,
        2.4370360374450684,
        1.0229045152664185
      ],
      "min": [
        -1.0229018926620483,
        -2.527421712875366,
        -1.0229045152664185
      ],
      "bufferView": 3,
      "byteOffset": 36
    }
  ],
  "bufferViews": [
    {
      "buffer": 0,
      "byteOffset": 0,
      "byteLength": 5232,
      "target": 34963
    },
    {
      "buffer": 0,
      "byteOffset": 5232,
      "byteLength": 19104,
      "byteStride": 48,
      "target": 34962
    },
    {
      "buffer": 0,
      "byteOffset": 24336,
      "byteLength": 7296,
      "byteStride": 48,
      "target": 34962
    },
    {
      "buffer": 0,
      "byteOffset": 31632,
      "byteLength": 27504,
      "byteStride": 48,
      "target": 34962
    }
  ],
  "samplers": [
    {
      "wrapS": 10497,
      "wrapT": 10497
    }
  ],
  "textures": [
    {
      "sampler": 0,
      "extensions": {
        "EXT_texture_webp": {
          "source": 0
        }
      }
    },
    {
      "sampler": 0,
      "extensions": {
        "EXT_texture_webp": {
          "source": 3
        }
      }
    },
    {
      "sampler": 0,
      "extensions": {
        "EXT_texture_webp": {
          "source": 2
        }
      }
    },
    {
      "sampler": 0,
      "extensions": {
        "EXT_texture_webp": {
          "source": 1
        }
      }
    }
  ],
  "images": [
    {
      "extras": {
        "fidelityKey": "22848861c8f14b82bf8d"
      },
      "mimeType": "image/webp",
      "uri": "../textures/22848861c8f14b82bf8d.webp"
    },
    {
      "extras": {
        "fidelityKey": "088f922bdab478dcdcea"
      },
      "mimeType": "image/webp",
      "uri": "../textures/088f922bdab478dcdcea.webp"
    },
    {
      "extras": {
        "fidelityKey": "60255fe2be07bdec53f8"
      },
      "mimeType": "image/webp",
      "uri": "../textures/60255fe2be07bdec53f8.webp"
    },
    {
      "extras": {
        "fidelityKey": "6d2f2b81c49b1d12159d"
      },
      "mimeType": "image/webp",
      "uri": "../textures/6d2f2b81c49b1d12159d.webp"
    }
  ],
  "buffers": [
    {
      "uri": "lantern-far-webp.bin",
      "byteLength": 59136
    }
  ],
  "materials": [
    {
      "name": "LanternPost_Mat",
      "pbrMetallicRoughness": {
        "baseColorTexture": {
          "index": 0
        },
        "metallicRoughnessTexture": {
          "index": 3
        }
      },
      "emissiveFactor": [
        1,
        1,
        1
      ],
      "emissiveTexture": {
        "index": 1
      },
      "normalTexture": {
        "index": 2
      }
    }
  ],
  "meshes": [
    {
      "name": "LanternPole_Body",
      "primitives": [
        {
          "attributes": {
            "TEXCOORD_0": 3,
            "NORMAL": 4,
            "TANGENT": 5,
            "POSITION": 6
          },
          "mode": 4,
          "material": 0,
          "indices": 0
        }
      ]
    },
    {
      "name": "LanternPole_Chain",
      "primitives": [
        {
          "attributes": {
            "TEXCOORD_0": 7,
            "NORMAL": 8,
            "TANGENT": 9,
            "POSITION": 10
          },
          "mode": 4,
          "material": 0,
          "indices": 1
        }
      ]
    },
    {
      "name": "LanternPole_Lantern",
      "primitives": [
        {
          "attributes": {
            "TEXCOORD_0": 11,
            "NORMAL": 12,
            "TANGENT": 13,
            "POSITION": 14
          },
          "mode": 4,
          "material": 0,
          "indices": 2
        }
      ]
    }
  ],
  "nodes": [
    {
      "name": "LanternPole_Body",
      "translation": [
        -3.82315421,
        13.01603,
        0
      ],
      "mesh": 0
    },
    {
      "name": "LanternPole_Chain",
      "translation": [
        -9.582001,
        21.0378723,
        0
      ],
      "mesh": 1
    },
    {
      "name": "LanternPole_Lantern",
      "translation": [
        -9.582007,
        18.0091515,
        0
      ],
      "mesh": 2
    },
    {
      "name": "Lantern",
      "rotation": [
        0,
        1,
        0,
        0
      ],
      "children": [
        0,
        1,
        2
      ]
    }
  ],
  "scenes": [
    {
      "nodes": [
        3
      ]
    }
  ],
  "scene": 0,
  "extensionsUsed": [
    "EXT_texture_webp"
  ],
  "extensionsRequired": [
    "EXT_texture_webp"
  ]
}