{
  "asset": {
    "generator": "glTF-Transform v4.5.1",
    "version": "2.0"
  },
  "accessors": [
    {
      "type": "SCALAR",
      "componentType": 5123,
      "count": 1254,
      "bufferView": 0,
      "byteOffset": 0
    },
    {
      "type": "SCALAR",
      "componentType": 5123,
      "count": 1794,
      "bufferView": 0,
      "byteOffset": 2508
    },
    {
      "type": "SCALAR",
      "componentType": 5123,
      "count": 4710,
      "bufferView": 0,
      "byteOffset": 6096
    },
    {
      "type": "VEC2",
      "componentType": 5126,
      "count": 587,
      "bufferView": 1,
      "byteOffset": 0
    },
    {
      "type": "VEC3",
      "componentType": 5126,
      "count": 587,
      "bufferView": 1,
      "byteOffset": 8
    },
    {
      "type": "VEC4",
      "componentType": 5126,
      "count": 587,
      "bufferView": 1,
      "byteOffset": 20
    },
    {
      "type": "VEC3",
      "componentType": 5126,
      "count": 587,
      "max": [
        7.745599269866943,
        12.832109451293945,
        2.3157098293304443
      ],
      "min": [
        -7.745599269866943,
        -12.832109451293945,
        -2.3157098293304443
      ],
      "bufferView": 1,
      "byteOffset": 36
    },
    {
      "type": "VEC2",
      "componentType": 5126,
      "count": 377,
      "bufferView": 2,
      "byteOffset": 0
    },
    {
      "type": "VEC3",
      "componentType": 5126,
      "count": 377,
      "bufferView": 2,
      "byteOffset": 8
    },
    {
      "type": "VEC4",
      "componentType": 5126,
      "count": 377,
      "bufferView": 2,
      "byteOffset": 20
    },
    {
      "type": "VEC3",
      "componentType": 5126,
      "count": 377,
      "max": [
        0.12920807301998138,
        0.6523504257202148,
        0.12920807301998138
      ],
      "min": [
        -0.12920807301998138,
        -0.6523504257202148,
        -0.12920807301998138
      ],
      "bufferView": 2,
      "byteOffset": 36
    },
    {
      "type": "VEC2",
      "componentType": 5126,
      "count": 1446,
      "bufferView": 3,
      "byteOffset": 0
    },
    {
      "type": "VEC3",
      "componentType": 5126,
      "count": 1446,
      "bufferView": 3,
      "byteOffset": 8
    },
    {
      "type": "VEC4",
      "componentType": 5126,
      "count": 1446,
      "bufferView": 3,
      "byteOffset": 20
    },
    {
      "type": "VEC3",
      "componentType": 5126,
      "count": 1446,
      "max": [
        1.0306411981582642,
        2.5292809009552,
        1.0306432247161865
      ],
      "min": [
        -1.0306411981582642,
        -2.527423143386841,
        -1.0306432247161865
      ],
      "bufferView": 3,
      "byteOffset": 36
    }
  ],
  "bufferViews": [
    {
      "buffer": 0,
      "byteOffset": 0,
      "byteLength": 15516,
      "target": 34963
    },
    {
      "buffer": 0,
      "byteOffset": 15516,
      "byteLength": 28176,
      "byteStride": 48,
      "target": 34962
    },
    {
      "buffer": 0,
      "byteOffset": 43692,
      "byteLength": 18096,
      "byteStride": 48,
      "target": 34962
    },
    {
      "buffer": 0,
      "byteOffset": 61788,
      "byteLength": 69408,
      "byteStride": 48,
      "target": 34962
    }
  ],
  "samplers": [
    {
      "wrapS": 10497,
      "wrapT": 10497
    }
  ],
  "textures": [
    {
      "sampler": 0,
      "extensions": {
        "KHR_texture_basisu": {
          "source": 0
        }
      }
    },
    {
      "sampler": 0,
      "extensions": {
        "KHR_texture_basisu": {
          "source": 3
        }
      }
    },
    {
      "sampler": 0,
      "extensions": {
        "KHR_texture_basisu": {
          "source": 2
        }
      }
    },
    {
      "sampler": 0,
      "extensions": {
        "KHR_texture_basisu": {
          "source": 1
        }
      }
    }
  ],
  "images": [
    {
      "extras": {
        "fidelityKey": "22848861c8f14b82bf8d"
      },
      "mimeType": "image/ktx2",
      "uri": "../textures/22848861c8f14b82bf8d.ktx2"
    },
    {
      "extras": {
        "fidelityKey": "088f922bdab478dcdcea"
      },
      "mimeType": "image/ktx2",
      "uri": "../textures/088f922bdab478dcdcea.ktx2"
    },
    {
      "extras": {
        "fidelityKey": "60255fe2be07bdec53f8"
      },
      "mimeType": "image/ktx2",
      "uri": "../textures/60255fe2be07bdec53f8.ktx2"
    },
    {
      "extras": {
        "fidelityKey": "6d2f2b81c49b1d12159d"
      },
      "mimeType": "image/ktx2",
      "uri": "../textures/6d2f2b81c49b1d12159d.ktx2"
    }
  ],
  "buffers": [
    {
      "uri": "lantern-mid.bin",
      "byteLength": 131196
    }
  ],
  "materials": [
    {
      "name": "LanternPost_Mat",
      "pbrMetallicRoughness": {
        "baseColorTexture": {
          "index": 0
        },
        "metallicRoughnessTexture": {
          "index": 3
        }
      },
      "emissiveFactor": [
        1,
        1,
        1
      ],
      "emissiveTexture": {
        "index": 1
      },
      "normalTexture": {
        "index": 2
      }
    }
  ],
  "meshes": [
    {
      "name": "LanternPole_Body",
      "primitives": [
        {
          "attributes": {
            "TEXCOORD_0": 3,
            "NORMAL": 4,
            "TANGENT": 5,
            "POSITION": 6
          },
          "mode": 4,
          "material": 0,
          "indices": 0
        }
      ]
    },
    {
      "name": "LanternPole_Chain",
      "primitives": [
        {
          "attributes": {
            "TEXCOORD_0": 7,
            "NORMAL": 8,
            "TANGENT": 9,
            "POSITION": 10
          },
          "mode": 4,
          "material": 0,
          "indices": 1
        }
      ]
    },
    {
      "name": "LanternPole_Lantern",
      "primitives": [
        {
          "attributes": {
            "TEXCOORD_0": 11,
            "NORMAL": 12,
            "TANGENT": 13,
            "POSITION": 14
          },
          "mode": 4,
          "material": 0,
          "indices": 2
        }
      ]
    }
  ],
  "nodes": [
    {
      "name": "LanternPole_Body",
      "translation": [
        -3.82315421,
        13.01603,
        0
      ],
      "mesh": 0
    },
    {
      "name": "LanternPole_Chain",
      "translation": [
        -9.582001,
        21.0378723,
        0
      ],
      "mesh": 1
    },
    {
      "name": "LanternPole_Lantern",
      "translation": [
        -9.582007,
        18.0091515,
        0
      ],
      "mesh": 2
    },
    {
      "name": "Lantern",
      "rotation": [
        0,
        1,
        0,
        0
      ],
      "children": [
        0,
        1,
        2
      ]
    }
  ],
  "scenes": [
    {
      "nodes": [
        3
      ]
    }
  ],
  "scene": 0,
  "extensionsUsed": [
    "KHR_texture_basisu"
  ],
  "extensionsRequired": [
    "KHR_texture_basisu"
  ]
}